<?xml version="1.0" encoding="UTF-8"?>
<!DOCTYPE svg PUBLIC "-//W3C//DTD SVG 1.1//EN" "http://www.w3.org/Graphics/SVG/1.1/DTD/svg11.dtd">
<svg xmlns="http://www.w3.org/2000/svg" version="1.1" width="20px" height="20px" viewBox="0 0 128 128" style="shape-rendering:geometricPrecision; text-rendering:geometricPrecision; image-rendering:optimizeQuality; fill-rule:evenodd; clip-rule:evenodd" xmlns:xlink="http://www.w3.org/1999/xlink">
<g><path style="opacity:1" fill="#f0f0f0" d="M -0.5,-0.5 C 2.16667,-0.5 4.83333,-0.5 7.5,-0.5C 7.5,0.833333 7.5,2.16667 7.5,3.5C 11.1667,3.5 14.8333,3.5 18.5,3.5C 18.5,6.5 18.5,9.5 18.5,12.5C 21.5,12.5 24.5,12.5 27.5,12.5C 27.5,14.8333 27.5,17.1667 27.5,19.5C 29.8333,19.5 32.1667,19.5 34.5,19.5C 34.5,22.1667 34.5,24.8333 34.5,27.5C 37.1667,27.5 39.8333,27.5 42.5,27.5C 42.5,29.8333 42.5,32.1667 42.5,34.5C 44.8333,34.5 47.1667,34.5 49.5,34.5C 49.5,36.8333 49.5,39.1667 49.5,41.5C 51.8333,41.5 54.1667,41.5 56.5,41.5C 56.5,43.8333 56.5,46.1667 56.5,48.5C 59.1667,48.5 61.8333,48.5 64.5,48.5C 64.5,51.1667 64.5,53.8333 64.5,56.5C 66.8333,56.5 69.1667,56.5 71.5,56.5C 71.5,58.8333 71.5,61.1667 71.5,63.5C 73.8333,63.5 76.1667,63.5 78.5,63.5C 78.5,65.8333 78.5,68.1667 78.5,70.5C 80.8333,70.5 83.1667,70.5 85.5,70.5C 85.5,74.1667 85.5,77.8333 85.5,81.5C 88.1667,81.5 90.8333,81.5 93.5,81.5C 93.5,87.5 93.5,93.5 93.5,99.5C 76.8333,99.5 60.1667,99.5 43.5,99.5C 43.5,101.833 43.5,104.167 43.5,106.5C 40.5,106.5 37.5,106.5 34.5,106.5C 34.5,108.833 34.5,111.167 34.5,113.5C 32.5,113.5 30.5,113.5 28.5,113.5C 28.5,115.833 28.5,118.167 28.5,120.5C 26.1667,120.5 23.8333,120.5 21.5,120.5C 21.5,122.833 21.5,125.167 21.5,127.5C 14.1667,127.5 6.83333,127.5 -0.5,127.5C -0.5,84.8333 -0.5,42.1667 -0.5,-0.5 Z"/></g>
<g><path style="opacity:1" fill="#020202" d="M 7.5,14.5 C 10.8333,14.5 14.1667,14.5 17.5,14.5C 17.5,17.5 17.5,20.5 17.5,23.5C 19.8333,23.5 22.1667,23.5 24.5,23.5C 24.5,25.8333 24.5,28.1667 24.5,30.5C 26.8333,30.5 29.1667,30.5 31.5,30.5C 31.5,33.1667 31.5,35.8333 31.5,38.5C 34.1667,38.5 36.8333,38.5 39.5,38.5C 39.5,40.8333 39.5,43.1667 39.5,45.5C 41.8333,45.5 44.1667,45.5 46.5,45.5C 46.5,48.1667 46.5,50.8333 46.5,53.5C 49.1667,53.5 51.8333,53.5 54.5,53.5C 54.5,55.5 54.5,57.5 54.5,59.5C 56.8333,59.5 59.1667,59.5 61.5,59.5C 61.5,62.1667 61.5,64.8333 61.5,67.5C 63.8333,67.5 66.1667,67.5 68.5,67.5C 68.5,69.8333 68.5,72.1667 68.5,74.5C 71.1667,74.5 73.8333,74.5 76.5,74.5C 76.5,76.8333 76.5,79.1667 76.5,81.5C 78.8333,81.5 81.1667,81.5 83.5,81.5C 83.5,84.8333 83.5,88.1667 83.5,91.5C 68.1667,91.5 52.8333,91.5 37.5,91.5C 37.5,93.5 37.5,95.5 37.5,97.5C 35.8333,97.5 34.1667,97.5 32.5,97.5C 32.5,100.167 32.5,102.833 32.5,105.5C 29.8333,105.5 27.1667,105.5 24.5,105.5C 24.5,107.833 24.5,110.167 24.5,112.5C 22.1667,112.5 19.8333,112.5 17.5,112.5C 17.5,114.833 17.5,117.167 17.5,119.5C 14.1667,119.5 10.8333,119.5 7.5,119.5C 7.5,84.5 7.5,49.5 7.5,14.5 Z"/></g>
<g><path style="opacity:1" fill="#414141" d="M 7.5,14.5 C 7.5,49.5 7.5,84.5 7.5,119.5C 10.8333,119.5 14.1667,119.5 17.5,119.5C 14.0381,120.482 10.3714,120.815 6.5,120.5C 6.16827,84.9961 6.50161,49.6627 7.5,14.5 Z"/></g>
</svg>



