<?xml version="1.0" encoding="UTF-8"?>
<!DOCTYPE svg PUBLIC "-//W3C//DTD SVG 1.1//EN" "http://www.w3.org/Graphics/SVG/1.1/DTD/svg11.dtd">
<svg xmlns="http://www.w3.org/2000/svg" version="1.1" width="128px" height="128px" style="shape-rendering:geometricPrecision; text-rendering:geometricPrecision; image-rendering:optimizeQuality; fill-rule:evenodd; clip-rule:evenodd" xmlns:xlink="http://www.w3.org/1999/xlink">
<g><path style="opacity:1" fill="#efefef" d="M -0.5,77.5 C -0.5,66.5 -0.5,55.5 -0.5,44.5C 1.16667,44.5 2.83333,44.5 4.5,44.5C 4.5,42.8333 4.5,41.1667 4.5,39.5C 8.5,39.5 12.5,39.5 16.5,39.5C 16.5,31.8333 16.5,24.1667 16.5,16.5C 18.1667,16.5 19.8333,16.5 21.5,16.5C 21.5,14.5 21.5,12.5 21.5,10.5C 27.8333,10.5 34.1667,10.5 40.5,10.5C 40.5,8.83333 40.5,7.16667 40.5,5.5C 49.5,5.5 58.5,5.5 67.5,5.5C 67.5,7.16667 67.5,8.83333 67.5,10.5C 73.5092,10.3338 79.5092,10.5005 85.5,11C 86.4061,12.6995 86.7394,14.5328 86.5,16.5C 90.8333,16.5 95.1667,16.5 99.5,16.5C 99.7394,18.4672 99.4061,20.3005 98.5,22C 100.473,22.4955 102.473,22.6621 104.5,22.5C 104.5,24.1667 104.5,25.8333 104.5,27.5C 106.5,27.5 108.5,27.5 110.5,27.5C 110.5,46.8333 110.5,66.1667 110.5,85.5C 108.5,85.5 106.5,85.5 104.5,85.5C 104.5,91.1667 104.5,96.8333 104.5,102.5C 102.473,102.338 100.473,102.505 98.5,103C 99.8333,109 99.8333,115 98.5,121C 73.1667,121.667 47.8333,121.667 22.5,121C 21.5236,114.924 21.1903,108.758 21.5,102.5C 19.5,102.5 17.5,102.5 15.5,102.5C 15.5,100.833 15.5,99.1667 15.5,97.5C 13.712,97.7852 12.0453,97.4519 10.5,96.5C 9.20537,93.6341 9.20537,90.8007 10.5,88C 8.5273,87.5045 6.5273,87.3379 4.5,87.5C 4.5,84.1667 4.5,80.8333 4.5,77.5C 2.83333,77.5 1.16667,77.5 -0.5,77.5 Z"/></g>
<g><path style="opacity:1" fill="#010101" d="M 85.5,46.5 C 86.492,39.0182 86.8254,31.3516 86.5,23.5C 88.1667,23.5 89.8333,23.5 91.5,23.5C 91.2155,25.4147 91.5489,27.0813 92.5,28.5C 94.1667,28.5 95.8333,28.5 97.5,28.5C 97.5,30.5 97.5,32.5 97.5,34.5C 99.5,34.5 101.5,34.5 103.5,34.5C 103.5,49.1667 103.5,63.8333 103.5,78.5C 101.833,78.5 100.167,78.5 98.5,78.5C 98.5,84.5 98.5,90.5 98.5,96.5C 96.5,96.5 94.5,96.5 92.5,96.5C 92.5,102.5 92.5,108.5 92.5,114.5C 71.1667,114.5 49.8333,114.5 28.5,114.5C 28.5,108.5 28.5,102.5 28.5,96.5C 26.5,96.5 24.5,96.5 22.5,96.5C 22.5,94.5 22.5,92.5 22.5,90.5C 20.5,90.5 18.5,90.5 16.5,90.5C 16.5,87.5 16.5,84.5 16.5,81.5C 15.0813,80.5489 13.4147,80.2155 11.5,80.5C 11.81,77.2869 11.4767,74.2869 10.5,71.5C 9.08134,70.5489 7.41467,70.2155 5.5,70.5C 5.5,64.1667 5.5,57.8333 5.5,51.5C 7.41467,51.7845 9.08134,51.4511 10.5,50.5C 10.5,48.8333 10.5,47.1667 10.5,45.5C 12.5,45.5 14.5,45.5 16.5,45.5C 16.5,49.5 16.5,53.5 16.5,57.5C 18.5,57.5 20.5,57.5 22.5,57.5C 22.5,46.1667 22.5,34.8333 22.5,23.5C 24.5,23.5 26.5,23.5 28.5,23.5C 28.5,21.5 28.5,19.5 28.5,17.5C 32.8333,17.5 37.1667,17.5 41.5,17.5C 41.5,25.5 41.5,33.5 41.5,41.5C 43.5,41.5 45.5,41.5 47.5,41.5C 47.5,31.5 47.5,21.5 47.5,11.5C 51.8333,11.5 56.1667,11.5 60.5,11.5C 60.5,21.5 60.5,31.5 60.5,41.5C 62.5,41.5 64.5,41.5 66.5,41.5C 66.5,33.5 66.5,25.5 66.5,17.5C 70.8333,17.5 75.1667,17.5 79.5,17.5C 79.5,27.1667 79.5,36.8333 79.5,46.5C 81.5,46.5 83.5,46.5 85.5,46.5 Z"/></g>
<g><path style="opacity:1" fill="#515151" d="M 92.5,28.5 C 91.5489,27.0813 91.2155,25.4147 91.5,23.5C 89.8333,23.5 88.1667,23.5 86.5,23.5C 86.8254,31.3516 86.492,39.0182 85.5,46.5C 85.5,38.5 85.5,30.5 85.5,22.5C 87.8333,22.5 90.1667,22.5 92.5,22.5C 92.5,24.5 92.5,26.5 92.5,28.5 Z"/></g>
<g><path style="opacity:1" fill="#b0b0b0" d="M 16.5,16.5 C 16.5,24.1667 16.5,31.8333 16.5,39.5C 12.5,39.5 8.5,39.5 4.5,39.5C 7.96192,38.5184 11.6286,38.185 15.5,38.5C 15.175,30.9809 15.5084,23.6476 16.5,16.5 Z"/></g>
<g><path style="opacity:1" fill="#868686" d="M 97.5,28.5 C 98.4511,29.9187 98.7845,31.5853 98.5,33.5C 100.5,33.5 102.5,33.5 104.5,33.5C 104.829,48.676 104.496,63.676 103.5,78.5C 103.5,63.8333 103.5,49.1667 103.5,34.5C 101.5,34.5 99.5,34.5 97.5,34.5C 97.5,32.5 97.5,30.5 97.5,28.5 Z"/></g>
<g><path style="opacity:1" fill="#6f6f6f" d="M 10.5,50.5 C 9.08134,51.4511 7.41467,51.7845 5.5,51.5C 5.5,57.8333 5.5,64.1667 5.5,70.5C 7.41467,70.2155 9.08134,70.5489 10.5,71.5C 8.5,71.5 6.5,71.5 4.5,71.5C 4.5,64.5 4.5,57.5 4.5,50.5C 6.5,50.5 8.5,50.5 10.5,50.5 Z"/></g>
<g><path style="opacity:1" fill="#595959" d="M 10.5,71.5 C 11.4767,74.2869 11.81,77.2869 11.5,80.5C 13.4147,80.2155 15.0813,80.5489 16.5,81.5C 14.5,81.5 12.5,81.5 10.5,81.5C 10.5,78.1667 10.5,74.8333 10.5,71.5 Z"/></g>
<g><path style="opacity:1" fill="#757675" d="M 125.5,127.5 C 125.842,126.662 126.508,126.328 127.5,126.5C 127.5,126.833 127.5,127.167 127.5,127.5C 126.833,127.5 126.167,127.5 125.5,127.5 Z"/></g>
</svg>
